<svg width="730" height="907" viewBox="0 0 730 907" fill="none" xmlns="http://www.w3.org/2000/svg">
<path d="M404.889 1.13369C405.229 1.70054 405.796 2.26739 406.136 2.26739C406.362 2.26739 406.589 1.70054 406.589 1.13369C406.589 0.453477 406.022 0 405.343 0C404.776 0 404.549 0.453477 404.889 1.13369ZM710.274 137.29C685.458 143.526 667.781 146.133 620.188 150.214C566.364 154.976 533.502 164.272 504.493 183.091C478.204 200.21 458.374 227.986 451.462 257.462C449.422 266.191 447.383 291.699 447.383 308.025C447.383 314.6 446.929 319.928 446.249 320.268C445.57 320.608 440.244 319.135 434.238 316.867C404.323 305.757 368.742 299.295 336.334 299.295C312.197 299.295 302.339 300.315 280.242 305.077C257.919 309.952 243.302 315.053 222.452 325.37C192.196 340.108 167.267 358.247 144.604 381.828C105.397 422.754 85.0002 462.207 73.3287 519.912C69.9293 536.464 69.5893 540.092 69.1361 565.033C68.5695 596.776 69.5893 606.866 75.7083 630.9C89.9861 687.132 108.343 719.895 146.417 757.874C172.366 783.722 190.043 796.873 216.673 809.911C234.01 818.413 248.628 823.401 276.276 830.317C316.163 840.407 350.158 840.52 398.657 830.884C434.578 823.742 478.431 802.315 508.346 777.26C526.703 761.955 550.726 734.86 564.211 714.227C593.786 669.106 610.103 607.66 606.024 556.417C603.644 525.127 596.392 491.796 587.1 469.349C582.228 457.219 567.837 429.556 561.491 419.58C550.839 403.255 525.797 375.819 507.78 360.741C493.955 349.178 478.431 337.841 469.706 333.192C466.08 331.265 462.793 328.998 462.453 328.091C461.66 326.05 467.553 315.62 475.371 305.077C496.675 276.621 528.743 255.194 586.76 230.366C597.072 225.945 609.99 220.277 615.542 217.783C621.095 215.175 625.854 213.361 626.194 213.588C627.101 214.495 602.171 230.14 575.429 245.445C548.573 260.749 526.137 275.034 514.805 283.877C500.641 294.987 484.097 312.786 485.117 315.62C485.91 317.661 503.7 323.443 515.372 325.483C527.61 327.637 555.485 327.297 568.63 324.803C583.134 322.082 603.304 315.393 615.769 309.158C655.656 289.092 686.364 256.328 709.254 209.166C718.999 189.213 723.532 175.382 727.838 152.255C731.917 131.395 732.257 131.735 710.274 137.29ZM380.527 332.739C404.323 336.027 412.821 340.788 415.654 352.465C418.034 362.328 416.901 365.503 396.391 409.263C390.612 421.394 380.753 443.047 374.294 457.445C360.81 487.601 345.059 521.272 342.906 524.787C342.113 526.147 340.3 527.508 338.827 527.961C333.161 529.321 331.461 527.167 320.469 503.813C256.9 368.337 256.333 367.203 257.239 356.66C258.373 342.715 269.024 336.707 301.206 331.719C315.823 329.451 360.81 330.018 380.527 332.739ZM223.245 371.058C225.511 372.418 228.344 374.799 229.591 376.386C231.97 379.561 245.568 407.676 276.616 473.997C288.175 498.598 299.166 521.952 301.092 526.034C306.985 538.278 305.172 545.306 296.22 545.306C294.407 545.306 264.265 535.897 229.364 524.447C194.349 512.883 158.315 501.092 149.023 498.145C139.845 495.197 130.78 491.796 128.967 490.662C124.661 488.055 121.034 482.273 121.034 477.852C121.034 465.381 136.672 436.812 156.389 413.231C170.44 396.339 192.196 376.84 203.981 370.378C209.307 367.543 218.032 367.883 223.245 371.058ZM471.179 370.718C482.284 376.386 513.785 406.542 527.043 424.228C535.542 435.565 543.361 448.262 549.933 461.413C554.805 471.163 555.259 472.523 554.805 478.645C554.352 484.427 553.786 485.901 550.273 489.415C546.533 493.043 543.247 494.29 508.46 505.06C430.952 528.981 396.731 539.638 388.572 542.472C378.6 545.873 372.594 546.1 369.988 543.266C365.682 538.504 366.249 536.69 379.733 509.482C386.872 495.197 395.824 476.605 399.79 468.215C414.861 435.678 442.17 380.127 444.89 376.613C446.363 374.459 449.196 371.851 451.235 370.604C455.995 367.657 465.286 367.77 471.179 370.718ZM173.046 534.65C229.93 551.088 281.036 566.28 285.682 568.207C291.687 570.588 292.82 577.277 287.948 581.811C284.662 584.759 273.217 592.695 200.695 642.124C145.397 679.763 144.717 680.216 138.145 680.216C126.134 680.216 119.675 673.641 111.176 652.44C99.6179 623.985 94.7453 590.541 97.2383 557.097C98.4847 540.885 100.411 532.496 104.264 527.734C107.21 523.88 114.575 520.479 119.788 520.365C121.941 520.365 145.851 526.827 173.046 534.65ZM561.038 521.612C567.723 523.426 572.823 528.755 575.202 536.124C578.148 545.873 577.808 586.233 574.409 604.712C569.083 634.075 556.279 669.673 548.8 675.454C544.38 678.969 538.488 680.556 532.709 679.876C527.27 679.309 528.516 680.103 431.518 614.575C408.175 598.817 387.665 584.532 385.966 582.945C382.113 579.431 381.546 572.855 384.832 569.908C385.966 568.887 397.297 565.033 409.989 561.405C468.346 544.4 536.902 524.447 543.134 522.633C551.179 520.139 555.145 519.912 561.038 521.612ZM316.957 606.186C318.316 607.32 319.903 610.267 320.469 612.761C321.149 615.369 321.603 654.141 321.603 702.323C321.603 787.35 321.603 787.35 318.43 793.018C311.971 804.696 303.472 806.396 280.582 800.501C236.389 789.05 201.262 769.891 171.12 740.982C159.335 729.645 155.936 724.203 155.936 716.607C156.049 709.352 158.202 705.384 164.888 699.829C170.44 695.294 174.973 692.12 231.517 653.801C248.967 641.897 271.97 626.252 282.509 618.997C293.16 611.741 302.566 605.392 303.472 605.052C307.212 603.692 314.577 604.259 316.957 606.186ZM369.535 606.072C372.934 607.886 422 640.537 477.411 677.949C512.765 701.756 517.638 706.518 517.638 716.494C517.638 724.09 514.692 728.965 503.7 739.735C473.785 768.984 437.977 789.277 395.258 801.068C376.107 806.396 367.835 807.076 361.943 803.562C354.011 798.914 350.951 793.812 349.818 783.722C348.345 770.798 349.365 612.988 350.951 610.154C354.124 604.259 362.509 602.445 369.535 606.072Z" fill="black"/>
<path d="M295.543 232.29C233.758 240.11 180.475 262.435 128.893 301.987C112.909 314.34 80.0323 347.659 68.5822 363.185C39.5603 402.397 21.1949 442.062 8.95126 491.813C1.58241 521.165 -1.4785 557.317 0.675474 588.143C3.73638 631.321 11.2186 665.319 25.2761 699.998C57.0188 778.308 124.132 845.399 204.849 879.738C244.074 896.397 284.66 905.463 326.152 906.823C406.756 909.43 486.226 883.138 549.485 832.82C562.635 822.393 591.43 793.381 601.973 780.122C641.765 729.69 665.459 671.893 672.601 607.862C674.868 587.009 674.301 539.864 671.467 521.845C667.273 495.553 660.244 469.034 651.288 446.255C640.178 417.809 620.339 383.811 602.427 362.391C590.41 348.112 584.515 344.939 575.332 347.432C566.716 349.699 560.821 358.878 563.089 366.585C563.655 368.398 568.303 375.424 573.632 382.111C608.209 426.309 627.481 471.187 636.437 528.645C638.931 544.964 639.271 591.542 637.004 607.975C627.708 673.479 599.933 730.824 554.586 777.855C506.065 828.173 449.382 857.299 378.301 868.291C368.438 869.765 358.461 870.331 337.488 870.331C308.467 870.331 300.191 869.538 275.704 864.438C195.553 847.779 124.812 799.161 81.5061 730.71C60.0797 697.051 46.7024 661.126 39.1069 617.495C36.8395 604.689 36.6128 598.909 36.6128 571.143C36.6128 536.918 37.6331 526.718 44.6618 497.479C62.9139 420.416 113.589 350.945 181.042 310.487C223.101 285.215 261.079 272.522 309.374 267.309C335.675 264.475 361.069 266.062 397.573 272.635C401.654 273.428 406.416 273.655 408.116 273.315C416.845 271.048 424.101 258.242 420.926 250.649C420.133 248.609 417.412 245.209 414.918 242.943C410.157 238.636 404.942 237.163 379.434 233.31C362.429 230.817 312.774 230.137 295.543 232.29Z" fill="black"/>
</svg>
