<svg xmlns="http://www.w3.org/2000/svg" width="1524" height="756" fill="none">
    <path fill="#fff"
        d="M569.933 4.533c-4.533 4-38.133 30.8-189.333 151.067-27.867 22.267-51.2 40.4-51.867 40.4-.533 0-1.2-21.733-1.333-48.4-.4-48.267-.4-48.267-39.467-48.267-39.066 0-39.066 0-38.933 79.067 0 48.933-.4 79.867-1.2 81.333-1.2 2.134-49.2 40.8-178 142.934C49.933 418.533 31.667 432.8 29.4 434.4c-2.4 1.733-4.4 3.467-4.4 4 0 .533 35.733.8 79.467.533 79.466-.266 79.466-.266 108.933-26.666 38.267-34 65.467-58.4 87.6-78.267 9.867-8.8 64.133-57.333 120.667-107.867 56.4-50.4 113.6-101.6 127.066-113.733 13.467-12 25.2-22.133 26-22.533 1.334-.534 117.6 102.933 404.934 360.133 15.733 14.133 98.803 88.4 184.663 165.2l156 139.467 98.27.266c54.13.134 99.73.267 101.33.267 4 .133 4.4-2.4.54-4.267-3.07-1.333-23.34-17.333-120-94.266-22.14-17.6-64.54-51.334-94.14-74.934-29.73-23.6-79.46-63.2-110.66-88-31.2-24.8-69.87-55.6-86-68.4-28.27-22.4-44.94-35.733-158.67-126.133-28.533-22.8-81.733-64.933-118-93.867-36.267-28.8-84.267-67.066-106.667-84.8-22.4-17.866-64.666-51.6-94.133-74.933-29.467-23.467-53.867-43.2-54.4-44.133-1.333-2.134-2.267-1.867-7.867 3.066Z" />
    <path fill="#fff"
        d="M590.6 301.601c-.533.533-.8 14.667-.533 31.333.4 30.4.4 30.4 31.333 30.134 30.933-.134 30.933-.134 31.333-30.934.267-30.666.267-30.666-30.4-31.066-16.933-.267-31.2 0-31.733.533ZM498.6 332.133c.4 30.8.4 30.8 31.467 30.933 30.933.267 30.933.267 30.933-30.8 0-30.933 0-30.933-31.333-30.933s-31.333 0-31.067 30.8ZM498.333 423.333c0 31.333 0 31.333 31.334 31.333 31.333 0 31.333 0 31.333-31.333 0-31.334 0-31.334-31.333-31.334-31.334 0-31.334 0-31.334 31.334ZM590.333 423.066c0 17.2.267 31.467.534 31.733.266.267 14.4.4 31.333.134 30.8-.4 30.8-.4 30.8-31.6 0-31.334 0-31.334-31.333-31.334-31.334 0-31.334 0-31.334 31.067ZM894.333 514.933c0 5.733-.4 10.4-.933 10.4-.667 0-2.8-2.134-4.933-4.8-2.134-2.8-6.8-6.134-10.8-8-6.4-2.8-9.2-3.067-30.134-3.334-23.2-.266-23.2-.266-23.2 49.6 0 49.867 0 49.867 11.334 49.867 11.2 0 11.2 0 10.933-16.667-.267-9.2.133-17.333.667-18.133.533-.8 6.533-1.733 13.066-2.133 14.134-.8 20.667-3.6 27.6-11.734 2.534-2.933 5.067-5.333 5.467-5.333.533 0 .933 12.267.933 27.333 0 27.334 0 27.334 10.667 27.334s10.667 0 10.667-8.667c0-4.933.533-8.667 1.333-8.667.8 0 1.334.534 1.334 1.067 0 2.667 10.266 12.8 15.2 15.067 8 3.6 18.8 3.333 26-.8 3.066-1.867 5.866-3.334 6.133-3.334.133 0 .667 1.2 1.067 2.667.666 2.4 1.866 2.667 10.8 2.667 10.133 0 10.133 0 10.133-31.334 0-31.333 0-31.333-10.667-31.333-8.533 0-10.666.4-10.666 2 0 2.533.133 2.533-6.8-.667-7.467-3.333-18.8-3.466-26-.133-4.934 2.267-15.2 12.4-15.2 15.067 0 .533-.534 1.066-1.334 1.066s-1.333-10.8-1.333-29.733c0-29.6 0-29.6-10.667-29.6s-10.667 0-10.667 10.267ZM866.2 531.466c5.333 4.4 5.733 11.867 1.067 17.333-2.534 2.934-4.534 3.734-10.8 4.267-5.734.4-8.134.133-8.934-1.2-1.333-2.133-1.6-21.6-.266-22.933.4-.534 4-.934 7.866-.934 5.6 0 7.867.667 11.067 3.467Zm96.267 36.4c3.2 3.2 3.867 5.067 3.867 10.133 0 8.667-5.2 14-13.6 14-11.467-.133-17.867-10.8-12.4-21.333 2.666-5.067 5.466-6.533 12.4-6.667 4.666 0 6.533.8 9.733 3.867ZM111 508.267c-6.534 1.733-15.6 7.733-19.2 12.8-4.4 6.267-6.133 15.333-4.133 22.267 2.533 9.2 9.066 15.6 23.066 22.666 14.667 7.467 16.933 9.334 16.933 13.867 0 6.4-4.533 9.467-13.333 9.467-5.467 0-16.933-4.667-21.466-8.8-1.067-1.067-2.667-1.867-3.334-1.867-.666 0-3.466 4.4-6.4 9.6-5.867 10.8-6 10.267 5.867 16.4 14.133 7.2 33.6 7.867 47.066 1.733 7.6-3.6 7.6-3.6 7.6-.266 0 3.066.267 3.2 10.534 3.2 11.733 0 14.8-.667 14.8-3.467 0-.933 1.2-5.067 2.8-9.2 2.667-7.333 2.667-7.333 21.067-7.333 13.2 0 18.8.533 19.866 1.6.667.933 2.667 5.466 4.267 10 3.066 8.4 3.066 8.4 14.666 8.4 6.4 0 12-.4 12.4-.934.534-.4.134-2.133-.8-3.6-1.066-1.6-10.133-23.6-20.266-49.2-18.534-46.266-18.533-46.266-29.333-46.266-12.267 0-8.534-5.734-29.334 45.6-8.267 20.533-11.333 26-11.333 20.133 0-4-6.4-13.067-12.267-17.2-3.067-2.267-11.067-6.667-17.467-9.733-13.333-6.4-16.133-9.734-12.4-15.334 3.867-6 12.934-6.266 24-.8 3.067 1.467 6 2.667 6.4 2.667.4 0 1.467-2 2.534-4.4.933-2.267 2.8-5.867 4.133-7.867 1.333-1.866 2.4-4.133 2.4-5.066 0-2.134-12.8-7.467-22-9.2-9.067-1.734-10.133-1.734-17.333.133Zm88.667 47.333c2.266 6.134 3.866 11.6 3.333 12.4-1.067 1.6-15.333 1.734-17.867.134-1.6-1.067-1.6-2.134.534-7.734 5.2-13.6 7.466-18.133 8.533-16.933.667.667 3.067 6.133 5.467 12.133ZM1.533 509.2c-1.2 1.2-.4 68.4.934 74.666C5.933 600.533 17.933 609.6 37.4 610.533c20.8.933 33.467-5.867 39.733-21.2C78.6 585.733 79 576.533 79 546.8c0-37.867 0-37.867-11.067-38-6.4-.134-10.933.4-10.933 1.2-.133.666 0 14.666 0 30.933.133 30.8-1.067 39.867-5.467 43.867-3.2 2.933-13.466 4-18.533 1.866-7.467-3.066-8-5.733-8-43.333 0-18.667-.4-34-.933-34-7.2-.533-22.134-.533-22.534-.133ZM265 509.334c-.667.4-1.867 8.266-2.667 17.333-1.333 16.667-2.933 33.2-5.466 60.667-.667 8-1.467 16.133-1.6 18-.267 3.333-.134 3.333 11.2 3.733 11.333.4 11.333.4 12.933-20 2.4-30.4 3.067-34.533 4.533-34.133 1.2.4 10.8 26.666 16.8 46C303 608 303 608 310.467 608c6.8 0 7.6-.266 8.266-3.066 2.4-10.934 19.2-55.067 19.734-51.6.133 1.066 2.4 30.666 3.333 43.6.933 12.4.933 12.4 12.8 12.4 11.733 0 11.733 0 10.933-5.334-.533-2.933-.4-5.333 0-5.333.534 0 3.067 1.6 5.467 3.467 10.133 7.6 27.067 10.666 39.2 7.066 6.8-2 14.933-7.866 18.533-13.2 4.934-7.333 5.867-6.666 5.334 3.467-.4 9.2-.4 9.2 10.8 9.2 11.2 0 11.2 0 10.933-16.133-.4-22.4 2.4-28.534 13.2-28.534 2.267 0 5.333.667 6.8 1.334 1.867 1.066 3.333.933 5.467-.534 5.2-3.333 6.133-1.2 6.666 15.867.534 18 2.267 23.067 9.467 27.333 4.8 2.934 15.333 3.6 22.133 1.2 3.334-1.2 4.134-2.133 4.134-5.466 0-4 0-4 5.066 0 2.667 2.133 6.934 4.533 9.467 5.333 6.4 2.267 18 2 23.733-.4 5.6-2.4 7.6-1.2 6.267 3.867-1.067 4.533-7.467 9.866-13.067 10.933-4.933.8-16.8-3.467-16.8-6 0-2.267-2.4-1.733-11.466 2.667-9.467 4.4-9.6 5.333-2.267 12 6.4 5.866 10.533 7.733 20.267 9.333 15.466 2.533 29.6-1.467 38.4-11.067 4.8-5.2 7.066-13.6 7.066-26.533 0-11.067 1.467-15.2 3.2-9.467 1.2 3.734 8.667 10.8 14.4 13.734 7.2 3.733 17.734 3.333 25.6-.8 6.267-3.334 6.4-3.334 7.067-.667.667 2.4 1.733 2.667 11.2 2.667 10.533 0 10.533 0 10.667-9.734 0-9.466 0-9.6 2.266-6.266 5.067 7.333 10.534 12.533 15.6 14.8 6.534 3.066 18.934 3.333 25.6.533 6.4-2.667 7.067-2.533 7.067 1.867 0 12-17.6 17.333-28.133 8.4-4-3.334-4-3.334-12 .533-4.534 2.133-8.4 4.267-8.667 4.8-1.2 1.867 5.333 9.2 10.8 12.4 18.933 10.933 47.867 5.2 56.267-11.333 2.533-5.067 2.933-8.134 3.066-19.467 0-7.333.4-13.733.8-14.267.4-.4 2.667 1.734 5.067 4.8 6.667 8.8 15.467 13.467 26.133 14 11.867.667 21.2-2.4 28.934-9.466 3.066-2.8 5.466-5.734 5.066-6.267-.4-.533-4-2.667-8.133-4.667-7.333-3.6-7.333-3.6-10.533-.666-2.134 2-5.467 3.2-9.734 3.733-5.466.533-6.933 0-10.666-3.067-2.4-2-4.267-4.666-4.267-6.133 0-2.4 1.2-2.533 22.667-2.533 22.8 0 22.8 0 21.866-7.067-2.4-18.667-13.866-28.8-33.2-28.8-10.266-.133-19.733 4.133-26.4 11.867-2.666 3.2-4.933 6.4-4.933 6.933 0 .667-.667.8-1.467.4-.8-.533-1.2-4.4-1.066-9.2.4-8.133.4-8.133-10.534-8.533-9.066-.267-10.933 0-10.933 1.733 0 2.533.133 2.533-6.8-.667-7.467-3.333-18.8-3.466-25.867-.133-5.066 2.267-10.533 7.467-15.6 14.8-2.266 3.333-2.266 3.2-2.266-6.4-.134-9.6-.134-9.6-10.267-9.6-8 0-10.533.533-11.867 2.133-1.466 2-1.866 2-5.333-.266-3.067-2-6.4-2.534-14.667-2.534-9.333 0-11.333.4-16.266 3.6-3.067 2-7.067 6.134-8.667 9.067-1.733 2.933-3.467 5.333-4 5.333-.667 0-1.067-3.866-1.067-8.666 0-8.667 0-8.667-10.133-8.667-8.133 0-10.533.533-11.867 2.267-1.6 2.133-1.866 2.133-5.2 0-8.533-5.6-24.4-4.4-33.466 2.533C526.333 554 523.4 556 523 556c-.4 0-.667-2.133-.667-4.533 0-4.533-.133-4.667-6.266-5.067-6.4-.4-6.4-.4-6.4-11.733s0-11.333-10.667-11.2c-10.667 0-10.667 0-11.333 11.2C487 545.867 487 545.867 477 546c-8.133 0-10.8.534-14.267 2.934-5.2 3.733-7.066 3.866-7.066.4 0-2.667-.667-2.8-10.934-2.4-10.933.4-10.933.4-10.533 9.333.4 10.133-.933 11.333-4.933 4.533-6.134-10.4-19.734-16.266-35.334-15.2-11.333.8-18 3.734-25.6 11.6-2.8 3.067-5.6 5.467-6 5.467-.533 0-1.733-9.733-2.666-21.733-2.134-26.934-2.934-32.267-5.067-32.134-.8.134-6.267.267-11.867.4-10.4.134-10.4.134-20.533 26.534-5.867 15.2-10.8 26.266-11.733 26.266-1.734 0-2.934-2.933-15.467-35.6-6.4-16.933-6.4-16.933-17.733-17.333-6.134-.267-11.734-.133-12.267.267Zm512.533 53.333c4.667 4.533 1.867 6.667-8.533 6.667-10 0-12.8-1.867-9.2-6.134 4.133-4.933 12.8-5.2 17.733-.533Zm-259.6 1.467c.934.933 1.067 3.2.134 6.933-.667 2.933-.8 8.667-.267 12.533.8 6.934.8 7.067-2.533 7.067-2.134 0-4.134-1.067-4.934-2.533-1.866-3.6-1.733-21.867.267-23.867s5.467-2 7.333-.133Zm-113.066 1.733c6.533 3.467 8.8 13.2 4.533 19.467-3.6 5.2-6 6.533-11.867 6.666-6.8 0-12-3.733-13.6-9.733-3.466-12.8 8.934-22.533 20.934-16.4Zm157.333 0c4.133 2.267 6.8 7.2 6.8 12.933 0 6.4-7.467 13.2-14.4 13.2-10.133 0-16.933-9.866-13.2-19.066 3.6-8.4 12.4-11.334 20.8-7.067Zm72 0c6 3.2 8.667 12.133 5.333 18.533-2.533 5.067-6.8 7.6-12.933 7.6-8.4 0-13.6-5.333-13.6-14 0-11.466 10.667-17.466 21.2-12.133Zm74.933 2c3.2 3.2 3.867 5.067 3.867 10.133 0 5.067-.667 6.934-3.867 10.134-8.8 8.8-24.133 2.4-24.133-10.134 0-8.133 6-13.866 14.4-14 4.667 0 6.533.8 9.733 3.867ZM1021.13 548.267c-5.33 2.667-6 2.667-7.46.667-1.2-1.733-3.74-2.267-11.2-2.267-9.47 0-9.47 0-9.47 31.334 0 31.333 0 31.333 10.67 31.333 10.66 0 10.66 0 10.66-19.867 0-19.6 0-19.866 3.47-23.333 4.53-4.4 12.27-4.8 16-.667 2.13 2.4 2.67 5.6 3.2 23.067.67 20.133.67 20.133 11.73 20.533 10.94.4 10.94.4 10.94-22 0-24-1.34-29.866-7.74-35.466-7.2-6.534-21.46-8-30.8-3.334Z" />
</svg>