<svg width="123" height="36" viewBox="0 0 123 36" fill="none" xmlns="http://www.w3.org/2000/svg">
<g clip-path="url(#clip0_1935_182)">
<mask id="mask0_1935_182" style="mask-type:luminance" maskUnits="userSpaceOnUse" x="0" y="0" width="123" height="36">
<path d="M123 0.240234H0V35.7589H123V0.240234Z" fill="white"/>
</mask>
<g mask="url(#mask0_1935_182)">
<path d="M1.13281 11.7609C1.83838 9.88449 2.80097 8.1695 4.07434 6.63779C6.75045 3.42135 10.1741 1.46929 14.2479 0.610117C15.7363 0.297384 17.2398 0.184733 18.7501 0.265438C21.5925 0.41676 24.2468 1.22549 26.686 2.70004C27.3916 3.12711 28.0501 3.62983 28.7271 4.10398C28.8111 4.16282 28.88 4.2553 28.9354 4.34441C30.0626 6.19895 30.832 8.188 31.215 10.3267C31.3914 11.3136 31.4889 12.3056 31.4939 13.3077C31.4939 13.38 31.4939 13.454 31.4939 13.5532C27.9829 8.24853 23.1179 5.25403 16.7711 4.87908C10.416 4.50582 5.23516 6.91353 1.13281 11.7609Z" fill="white"/>
<path d="M20.5958 35.5007C19.3342 35.7411 18.0054 35.8033 16.6783 35.731C13.226 35.5427 10.093 34.4297 7.31274 32.3683C4.33761 30.1624 2.17556 27.3377 0.942501 23.8253C0.519163 22.6198 0.216778 21.3823 0.112623 20.1078C0.0387069 19.2386 -0.0100106 18.3659 0.0017488 17.495C0.0118283 16.7804 0.122703 16.0658 0.196619 15.353C0.205019 15.2756 0.245336 15.1999 0.283975 15.1293C1.8463 12.2727 4.03018 10.0197 6.83564 8.37032C6.87932 8.3451 6.92468 8.32324 6.98516 8.29297C4.13434 13.9894 3.98651 19.7162 6.84572 25.4076C9.70662 31.1023 14.3902 34.3943 20.5941 35.5007H20.5958Z" fill="white"/>
<path d="M14.6855 32.168C21.0205 31.788 26.0535 29.0591 29.5511 23.7393C33.042 18.4312 33.5728 12.7382 31.4074 6.74414C31.4713 6.82148 31.5217 6.88201 31.5721 6.94422C31.6224 7.00643 31.6728 7.07032 31.7232 7.13253C33.4435 9.34856 34.5993 11.8252 35.1486 14.5826C35.4359 16.0269 35.5333 17.4897 35.4291 18.9525C35.1251 23.2181 33.6148 26.9877 30.6884 30.1453C28.8909 32.0839 26.7356 33.508 24.2812 34.4681C23.9486 34.5975 23.5404 34.5689 23.1691 34.5605C22.6534 34.5504 22.1393 34.5 21.6253 34.4529C20.1755 34.3167 18.7644 33.999 17.4154 33.4592C16.5335 33.1062 15.6885 32.6623 14.8267 32.2571C14.7746 32.2335 14.7292 32.1949 14.6872 32.168H14.6855Z" fill="white"/>
<path d="M48.0278 22.3813V22.615C48.0278 24.9286 48.0278 27.2404 48.0262 29.554C48.0262 29.7272 48.0144 29.9054 47.9707 30.0735C47.838 30.5948 47.3794 30.8671 46.7662 30.8083C46.2253 30.7545 45.8641 30.4031 45.8188 29.8819C45.812 29.8079 45.812 29.7339 45.812 29.6599C45.812 25.6196 45.8087 21.5776 45.812 17.5373C45.8154 14.4789 47.6683 11.7484 50.5225 10.8203C53.2037 9.94934 55.7252 10.3361 57.8772 12.2595C59.416 13.6349 60.1333 15.4104 60.177 17.4684C60.2156 19.2775 59.7452 20.9269 58.6012 22.3477C57.2859 23.982 55.574 24.8243 53.4691 24.8714C51.8345 24.9067 50.368 24.4477 49.0996 23.412C48.7216 23.1043 48.3941 22.7378 48.0278 22.383V22.3813ZM47.9556 17.6298C47.9808 17.9308 47.9976 18.2334 48.0346 18.5327C48.3403 20.9908 50.3192 22.8067 52.7904 22.8857C54.435 22.9378 55.8159 22.3561 56.8709 21.0766C57.7193 20.0476 58.0569 18.8421 58.0435 17.5188C58.0166 14.7345 55.9302 12.5739 53.4254 12.4075C51.9118 12.3083 50.578 12.7286 49.4894 13.8013C48.4277 14.8471 47.9808 16.1552 47.9556 17.6298Z" fill="white"/>
<path d="M101.329 24.8924C99.3841 24.8773 97.6689 24.2804 96.2561 22.9202C95.2532 21.9551 94.598 20.7798 94.3091 19.4163C93.9597 17.7635 94.0353 16.1309 94.7291 14.579C95.737 12.3243 97.4808 10.9641 99.9133 10.532C101.454 10.2579 102.976 10.3689 104.407 11.0347C106.625 12.0654 107.935 13.8308 108.382 16.2217C108.677 17.7971 108.551 19.349 107.863 20.8118C106.808 23.0547 105.032 24.3712 102.589 24.7748C102.174 24.8437 101.749 24.8538 101.328 24.8908L101.329 24.8924ZM106.339 17.6475C106.339 17.5062 106.346 17.365 106.339 17.2254C106.203 14.6513 104.323 12.595 101.793 12.4117C100.085 12.289 98.6248 12.8136 97.4993 14.1284C96.4863 15.3104 96.152 16.7126 96.2863 18.2427C96.5165 20.8706 98.5391 22.8042 101.16 22.8866C102.678 22.9337 103.984 22.4309 105.017 21.3027C105.959 20.2738 106.359 19.0312 106.339 17.6475Z" fill="white"/>
<path d="M117.428 24.9035C115.936 24.8615 114.51 24.5757 113.207 23.8443C112.756 23.5921 112.357 23.239 111.955 22.9061C111.431 22.4706 111.557 21.7577 111.898 21.4181C112.367 20.9507 113.097 20.8918 113.522 21.3525C114.645 22.5648 116.078 22.9078 117.65 22.8825C118.29 22.8725 118.925 22.8018 119.521 22.5496C120.106 22.3042 120.568 21.9158 120.79 21.3021C121.064 20.5455 120.773 19.7872 120.029 19.2811C119.422 18.8691 118.728 18.6825 118.028 18.5211C117.133 18.316 116.227 18.1529 115.343 17.9057C114.388 17.6384 113.526 17.1743 112.876 16.3891C111.831 15.1247 111.918 13.1458 113.059 11.9621C113.821 11.1685 114.774 10.7499 115.831 10.5548C117.403 10.2656 118.947 10.3531 120.424 11.0239C121.179 11.3686 121.835 11.8545 122.355 12.5086C122.463 12.6431 122.56 12.7977 122.609 12.9608C122.787 13.551 122.362 14.1075 121.719 14.1412C121.299 14.163 120.933 14.0268 120.654 13.7107C119.303 12.1706 116.921 12.142 115.626 12.6464C115.308 12.7692 114.999 12.9676 114.75 13.1996C114.055 13.8503 114.141 14.9684 114.898 15.5501C115.377 15.9167 115.933 16.1201 116.509 16.2563C117.364 16.4614 118.228 16.6212 119.083 16.8246C119.956 17.0331 120.776 17.3694 121.526 17.8788C123.397 19.1482 123.384 21.7796 122.051 23.1701C121.218 24.0376 120.187 24.5168 119.022 24.7253C118.497 24.8195 117.957 24.8447 117.425 24.9002L117.428 24.9035Z" fill="white"/>
<path d="M73.8439 12.5102C74.064 12.2799 74.2437 12.0697 74.4437 11.8848C75.6549 10.7683 77.0878 10.2841 78.7258 10.3968C79.265 10.4338 79.7942 10.5077 80.2763 10.7768C80.7282 11.029 80.8861 11.3703 80.7736 11.8461C80.6761 12.2648 80.409 12.5052 79.979 12.5086C79.6379 12.5119 79.2952 12.4783 78.9559 12.448C77.9816 12.3606 77.0257 12.4127 76.1051 12.7826C74.6167 13.3812 73.8473 14.5094 73.8456 16.1117C73.8422 18.6186 73.8456 21.1272 73.8456 23.6341C73.8456 24.5622 73.0124 25.0532 72.1875 24.611C71.8835 24.4479 71.7407 24.1772 71.7037 23.8426C71.6953 23.7686 71.6953 23.6946 71.6953 23.6207C71.6953 19.6342 71.6953 15.6476 71.6953 11.6611C71.6953 11.4005 71.7289 11.15 71.8851 10.9331C72.1405 10.5784 72.7033 10.4354 73.2039 10.5952C73.6087 10.7229 73.8389 11.0609 73.8456 11.5384C73.849 11.8461 73.8456 12.1555 73.8456 12.5086L73.8439 12.5102Z" fill="white"/>
<path d="M85.9806 12.5253C86.1083 12.3841 86.1973 12.2781 86.2914 12.1789C87.5379 10.8608 89.07 10.2773 90.8742 10.3984C91.4068 10.4337 91.9292 10.5094 92.4046 10.7733C92.8616 11.0255 93.0212 11.3652 92.912 11.8393C92.8112 12.2765 92.539 12.5219 92.0855 12.5119C91.5764 12.5018 91.0691 12.4328 90.5601 12.4177C89.2464 12.379 88.0184 12.6346 87.0138 13.5543C86.3569 14.1545 86.0058 14.9112 86.0008 15.8023C85.9857 18.4168 85.989 21.0313 85.9806 23.6475C85.9806 23.8005 85.9655 23.9585 85.9235 24.1048C85.8362 24.4007 85.6379 24.6244 85.3339 24.6815C85.0903 24.7286 84.8232 24.7387 84.5796 24.6967C84.1445 24.6193 83.8858 24.2948 83.8404 23.8543C83.8337 23.7803 83.832 23.7063 83.832 23.6324C83.832 19.6391 83.832 15.6459 83.832 11.6527C83.832 11.3635 83.8774 11.0894 84.0807 10.8658C84.3679 10.548 84.7442 10.5026 85.1356 10.5548C85.6665 10.6237 85.9706 10.9768 85.9806 11.5131C85.9874 11.8326 85.9806 12.152 85.9806 12.527V12.5253Z" fill="white"/>
<path d="M64.4775 17.6242C64.4775 15.6553 64.4909 13.6848 64.4708 11.7159C64.4624 10.8449 65.1226 10.4145 65.8802 10.5675C66.2985 10.6533 66.5976 10.9626 66.6614 11.3863C66.6816 11.5192 66.6933 11.6537 66.6933 11.7882C66.6933 15.694 66.6967 19.5998 66.6883 23.5056C66.6883 23.746 66.6412 24.0083 66.5421 24.2252C66.3489 24.6422 65.8433 24.8271 65.3292 24.7229C64.8504 24.6254 64.5262 24.2723 64.4842 23.7964C64.4758 23.709 64.4775 23.6216 64.4775 23.5342C64.4775 21.5653 64.4775 19.5947 64.4775 17.6259V17.6242Z" fill="white"/>
<path d="M67.0709 6.44951C67.0658 7.2986 66.3804 7.99132 65.5522 7.98459C64.7274 7.97787 64.0353 7.26329 64.047 6.43102C64.0605 5.57857 64.719 4.95983 65.611 4.96487C66.4241 4.96992 67.0742 5.63069 67.0692 6.45119L67.0709 6.44951Z" fill="white"/>
</g>
</g>
<defs>
<clipPath id="clip0_1935_182">
<rect width="123" height="36" fill="white"/>
</clipPath>
</defs>
</svg>
