<svg width="139" height="50" viewBox="0 0 139 50" fill="none" xmlns="http://www.w3.org/2000/svg">
<path d="M55.9766 15.0624V10.209H79.2564V15.0624H70.3722V39.0003H64.8196V15.0624H55.9766ZM99.6294 28.3887C99.6294 34.5582 94.4059 39.5761 87.9484 39.5761C81.5321 39.5761 76.2674 34.5582 76.2674 28.3887C76.2674 22.2191 81.5321 17.2012 87.9484 17.2012C94.4059 17.2012 99.6294 22.178 99.6294 28.3887ZM94.2825 28.3887C94.2825 24.8103 91.4856 21.9723 87.9484 21.9723C84.4523 21.9723 81.6143 24.8103 81.6143 28.3887C81.6143 31.967 84.4523 34.805 87.9484 34.805C91.4856 34.805 94.2825 31.967 94.2825 28.3887ZM102.594 31.2678V17.7359H107.982V30.1984C107.982 32.8307 109.75 34.7639 112.383 34.7639C115.015 34.7639 116.825 32.913 116.825 30.1984V17.7359H122.213V39.0003H116.825V37.1083C115.344 38.6301 113.287 39.4939 110.984 39.4939C106.007 39.4939 102.594 35.8744 102.594 31.2678ZM137.776 22.4659H135.843C133.293 22.4659 131.318 24.3168 131.318 27.5661V39.0003H125.93V17.7359H131.277V20.0392C132.347 18.4763 134.033 17.5303 136.336 17.5303H137.776V22.4659Z" fill="white"/>
<path d="M42.6668 22.077C44.7761 23.1837 44.8768 26.1663 42.847 27.4127L17.6132 42.9076C15.6066 44.1398 13.017 42.7479 12.9376 40.3945L11.9501 11.1417C11.8707 8.78838 14.3605 7.22502 16.4457 8.31906L42.6668 22.077Z" fill="white"/>
</svg>
